<svg width="1200" height="900" viewBox="0 0 1200 900" fill="none" xmlns="http://www.w3.org/2000/svg">
  <defs>
    <linearGradient id="bg" x1="140" y1="40" x2="1040" y2="860" gradientUnits="userSpaceOnUse">
      <stop stop-color="#FF6A3D" stop-opacity="0.28"/>
      <stop offset="0.52" stop-color="#3B82F6" stop-opacity="0.18"/>
      <stop offset="1" stop-color="#111827" stop-opacity="0.06"/>
    </linearGradient>
    <linearGradient id="card" x1="220" y1="220" x2="980" y2="700" gradientUnits="userSpaceOnUse">
      <stop stop-color="#FFFFFF" stop-opacity="0.92"/>
      <stop offset="1" stop-color="#FFFFFF" stop-opacity="0.76"/>
    </linearGradient>
    <filter id="shadow" x="0" y="0" width="1200" height="900" filterUnits="userSpaceOnUse" color-interpolation-filters="sRGB">
      <feDropShadow dx="0" dy="28" stdDeviation="34" flood-color="#111827" flood-opacity="0.18"/>
    </filter>
  </defs>

  <rect x="0" y="0" width="1200" height="900" rx="52" fill="url(#bg)"/>

  <g filter="url(#shadow)">
    <rect x="190" y="170" width="820" height="560" rx="34" fill="url(#card)"/>
    <rect x="230" y="230" width="340" height="18" rx="9" fill="#111827" fill-opacity="0.14"/>
    <rect x="230" y="262" width="280" height="12" rx="6" fill="#111827" fill-opacity="0.09"/>

    <rect x="230" y="320" width="470" height="18" rx="9" fill="#111827" fill-opacity="0.14"/>
    <rect x="230" y="352" width="410" height="12" rx="6" fill="#111827" fill-opacity="0.09"/>
    <rect x="230" y="376" width="360" height="12" rx="6" fill="#111827" fill-opacity="0.09"/>

    <rect x="230" y="440" width="190" height="44" rx="22" fill="#FF6A3D" fill-opacity="0.92"/>
    <rect x="438" y="440" width="160" height="44" rx="22" fill="#111827" fill-opacity="0.06"/>

    <circle cx="875" cy="360" r="86" fill="#3B82F6" fill-opacity="0.18"/>
    <circle cx="825" cy="430" r="64" fill="#FF6A3D" fill-opacity="0.18"/>
    <circle cx="915" cy="450" r="44" fill="#111827" fill-opacity="0.06"/>

    <rect x="230" y="550" width="240" height="120" rx="22" fill="#111827" fill-opacity="0.04"/>
    <rect x="254" y="578" width="150" height="14" rx="7" fill="#111827" fill-opacity="0.14"/>
    <rect x="254" y="606" width="190" height="10" rx="5" fill="#111827" fill-opacity="0.09"/>

    <rect x="500" y="550" width="240" height="120" rx="22" fill="#111827" fill-opacity="0.04"/>
    <rect x="524" y="578" width="150" height="14" rx="7" fill="#111827" fill-opacity="0.14"/>
    <rect x="524" y="606" width="190" height="10" rx="5" fill="#111827" fill-opacity="0.09"/>

    <rect x="770" y="550" width="240" height="120" rx="22" fill="#111827" fill-opacity="0.04"/>
    <rect x="794" y="578" width="150" height="14" rx="7" fill="#111827" fill-opacity="0.14"/>
    <rect x="794" y="606" width="190" height="10" rx="5" fill="#111827" fill-opacity="0.09"/>
  </g>
</svg>

