<svg width="1200" height="900" viewBox="0 0 1200 900" fill="none" xmlns="http://www.w3.org/2000/svg">
  <defs>
    <linearGradient id="bg2" x1="100" y1="60" x2="1100" y2="840" gradientUnits="userSpaceOnUse">
      <stop stop-color="#3B82F6" stop-opacity="0.22"/>
      <stop offset="0.48" stop-color="#FF6A3D" stop-opacity="0.16"/>
      <stop offset="1" stop-color="#111827" stop-opacity="0.06"/>
    </linearGradient>
    <filter id="shadow2" x="0" y="0" width="1200" height="900" filterUnits="userSpaceOnUse" color-interpolation-filters="sRGB">
      <feDropShadow dx="0" dy="26" stdDeviation="34" flood-color="#111827" flood-opacity="0.16"/>
    </filter>
  </defs>

  <rect x="0" y="0" width="1200" height="900" rx="52" fill="url(#bg2)"/>

  <g filter="url(#shadow2)">
    <rect x="210" y="190" width="780" height="520" rx="34" fill="#FFFFFF" fill-opacity="0.86"/>

    <rect x="250" y="242" width="320" height="16" rx="8" fill="#111827" fill-opacity="0.14"/>
    <rect x="250" y="272" width="260" height="10" rx="5" fill="#111827" fill-opacity="0.09"/>

    <rect x="250" y="336" width="360" height="14" rx="7" fill="#111827" fill-opacity="0.12"/>
    <rect x="250" y="360" width="300" height="10" rx="5" fill="#111827" fill-opacity="0.09"/>
    <rect x="250" y="384" width="330" height="10" rx="5" fill="#111827" fill-opacity="0.09"/>

    <rect x="250" y="450" width="330" height="46" rx="14" fill="#111827" fill-opacity="0.05"/>
    <rect x="250" y="512" width="420" height="46" rx="14" fill="#111827" fill-opacity="0.05"/>
    <rect x="250" y="574" width="580" height="92" rx="18" fill="#111827" fill-opacity="0.05"/>

    <rect x="610" y="450" width="220" height="46" rx="23" fill="#3B82F6" fill-opacity="0.92"/>
    <rect x="842" y="450" width="120" height="46" rx="23" fill="#FF6A3D" fill-opacity="0.82"/>

    <circle cx="860" cy="300" r="74" fill="#3B82F6" fill-opacity="0.16"/>
    <circle cx="805" cy="352" r="56" fill="#FF6A3D" fill-opacity="0.18"/>
    <circle cx="900" cy="372" r="40" fill="#111827" fill-opacity="0.06"/>
  </g>
</svg>

