<svg xmlns="http://www.w3.org/2000/svg" width="1200" height="1200" viewBox="0 0 1200 1200">
  <defs>
    <linearGradient id="g1" x1="0" y1="0" x2="1" y2="1">
      <stop offset="0" stop-color="#ff7a45"/>
      <stop offset="1" stop-color="#ff3d6e"/>
    </linearGradient>
    <linearGradient id="g2" x1="1" y1="0" x2="0" y2="1">
      <stop offset="0" stop-color="#ffd1c2"/>
      <stop offset="1" stop-color="#fff1ea"/>
    </linearGradient>
    <filter id="blur" x="-20%" y="-20%" width="140%" height="140%">
      <feGaussianBlur stdDeviation="22"/>
    </filter>
  </defs>
  <rect width="1200" height="1200" fill="#fff"/>
  <g filter="url(#blur)">
    <circle cx="820" cy="420" r="360" fill="url(#g1)" opacity="0.95"/>
    <circle cx="540" cy="700" r="320" fill="url(#g2)" opacity="0.95"/>
    <circle cx="900" cy="860" r="240" fill="#ffb38a" opacity="0.35"/>
  </g>
  <g opacity="0.85">
    <path d="M980 300c-130 70-250 220-260 350 120-110 250-220 360-250-10-40-50-80-100-100z" fill="#ff5b2e"/>
    <path d="M760 780c120-40 240-20 330 40-60 110-200 200-350 210-60-60-40-160 20-250z" fill="#ff8a5a" opacity="0.9"/>
  </g>
</svg>
